M48
; DRILL file {KiCad 9.0.7} date 2026-04-02T00:49:18+0900
; FORMAT={-:-/ absolute / metric / decimal}
; #@! TF.CreationDate,2026-04-02T00:49:18+09:00
; #@! TF.GenerationSoftware,Kicad,Pcbnew,9.0.7
; #@! TF.FileFunction,Plated,1,2,PTH
FMAT,2
METRIC
; #@! TA.AperFunction,Plated,PTH,ViaDrill
T1C0.300
; #@! TA.AperFunction,Plated,PTH,ComponentDrill
T2C0.500
; #@! TA.AperFunction,Plated,PTH,ComponentDrill
T3C0.550
; #@! TA.AperFunction,Plated,PTH,ComponentDrill
T4C0.600
; #@! TA.AperFunction,Plated,PTH,ComponentDrill
T5C0.800
; #@! TA.AperFunction,Plated,PTH,ComponentDrill
T6C0.860
; #@! TA.AperFunction,Plated,PTH,ComponentDrill
T7C1.000
; #@! TA.AperFunction,Plated,PTH,ComponentDrill
T8C1.016
%
G90
G05
T1
X139.0Y-122.0
X140.5Y-121.0
X144.0Y-153.0
X145.0Y-122.5
X148.5Y-134.5
X149.5Y-133.0
X154.5Y-119.0
X155.5Y-121.0
X157.0Y-122.5
X159.5Y-107.5
X163.5Y-135.0
X165.0Y-112.5
X166.0Y-114.5
X168.5Y-131.5
T4
X120.46Y-118.0
X120.46Y-147.489
X123.0Y-118.0
X123.0Y-147.489
X125.54Y-118.0
X125.54Y-147.489
X128.08Y-118.0
X128.08Y-147.489
X130.62Y-147.489
T5
X146.19Y-117.0
X153.81Y-117.0
X164.69Y-119.5
X172.31Y-119.5
T6
X165.19Y-127.31
X167.73Y-127.31
X170.27Y-127.31
X172.81Y-127.31
T7
X121.34Y-107.5
X123.88Y-107.5
X126.42Y-107.5
X128.96Y-107.5
X131.5Y-107.5
X134.04Y-107.5
X144.88Y-107.5
X147.42Y-107.5
X149.96Y-107.5
X152.5Y-107.5
X155.04Y-107.5
X157.58Y-107.5
X168.69Y-108.0
X171.23Y-108.0
X173.77Y-108.0
X176.31Y-108.0
X183.0Y-127.0
X183.0Y-129.5
X183.0Y-132.0
T8
X140.47Y-127.99
X140.47Y-130.53
X140.47Y-133.07
X140.47Y-135.61
X140.47Y-138.15
X140.47Y-140.69
X140.47Y-143.23
X140.47Y-145.77
X140.47Y-148.31
X140.47Y-150.85
X140.47Y-153.39
X140.47Y-155.93
X141.74Y-125.45
X144.28Y-125.45
X146.82Y-125.45
X149.36Y-125.45
X151.9Y-125.45
X152.789Y-136.753
X152.789Y-139.293
X152.789Y-147.167
X152.789Y-149.707
X154.44Y-125.45
X155.71Y-127.99
X155.71Y-130.53
X155.71Y-133.07
X155.71Y-135.61
X155.71Y-138.15
X155.71Y-140.69
X155.71Y-143.23
X155.71Y-145.77
X155.71Y-148.31
X155.71Y-150.85
X155.71Y-153.39
X155.71Y-155.93
T2
X183.675Y-146.15G85X184.325Y-146.15
G05
X183.675Y-153.15G85X184.325Y-153.15
G05
T3
X181.3Y-147.3G85X181.3Y-147.0
G05
X181.3Y-152.3G85X181.3Y-152.0
G05
M30
