G04 #@! TF.GenerationSoftware,KiCad,Pcbnew,9.0.7*
G04 #@! TF.CreationDate,2026-04-02T00:49:13+09:00*
G04 #@! TF.ProjectId,inzhunitor2,696e7a68-756e-4697-946f-72322e6b6963,rev?*
G04 #@! TF.SameCoordinates,Original*
G04 #@! TF.FileFunction,Copper,L1,Top*
G04 #@! TF.FilePolarity,Positive*
%FSLAX46Y46*%
G04 Gerber Fmt 4.6, Leading zero omitted, Abs format (unit mm)*
G04 Created by KiCad (PCBNEW 9.0.7) date 2026-04-02 00:49:13*
%MOMM*%
%LPD*%
G01*
G04 APERTURE LIST*
G04 Aperture macros list*
%AMRoundRect*
0 Rectangle with rounded corners*
0 $1 Rounding radius*
0 $2 $3 $4 $5 $6 $7 $8 $9 X,Y pos of 4 corners*
0 Add a 4 corners polygon primitive as box body*
4,1,4,$2,$3,$4,$5,$6,$7,$8,$9,$2,$3,0*
0 Add four circle primitives for the rounded corners*
1,1,$1+$1,$2,$3*
1,1,$1+$1,$4,$5*
1,1,$1+$1,$6,$7*
1,1,$1+$1,$8,$9*
0 Add four rect primitives between the rounded corners*
20,1,$1+$1,$2,$3,$4,$5,0*
20,1,$1+$1,$4,$5,$6,$7,0*
20,1,$1+$1,$6,$7,$8,$9,0*
20,1,$1+$1,$8,$9,$2,$3,0*%
G04 Aperture macros list end*
G04 #@! TA.AperFunction,ComponentPad*
%ADD10R,1.290000X1.290000*%
G04 #@! TD*
G04 #@! TA.AperFunction,ComponentPad*
%ADD11C,1.290000*%
G04 #@! TD*
G04 #@! TA.AperFunction,ComponentPad*
%ADD12C,1.600000*%
G04 #@! TD*
G04 #@! TA.AperFunction,ComponentPad*
%ADD13C,1.778000*%
G04 #@! TD*
G04 #@! TA.AperFunction,ComponentPad*
%ADD14R,1.778000X1.778000*%
G04 #@! TD*
G04 #@! TA.AperFunction,ComponentPad*
%ADD15C,1.879600*%
G04 #@! TD*
G04 #@! TA.AperFunction,ComponentPad*
%ADD16R,1.700000X1.700000*%
G04 #@! TD*
G04 #@! TA.AperFunction,ComponentPad*
%ADD17C,1.700000*%
G04 #@! TD*
G04 #@! TA.AperFunction,SMDPad,CuDef*
%ADD18RoundRect,0.100000X0.575000X-0.100000X0.575000X0.100000X-0.575000X0.100000X-0.575000X-0.100000X0*%
G04 #@! TD*
G04 #@! TA.AperFunction,HeatsinkPad*
%ADD19O,1.550000X0.890000*%
G04 #@! TD*
G04 #@! TA.AperFunction,SMDPad,CuDef*
%ADD20RoundRect,0.250000X0.525000X-0.475000X0.525000X0.475000X-0.525000X0.475000X-0.525000X-0.475000X0*%
G04 #@! TD*
G04 #@! TA.AperFunction,HeatsinkPad*
%ADD21O,0.950000X1.250000*%
G04 #@! TD*
G04 #@! TA.AperFunction,SMDPad,CuDef*
%ADD22RoundRect,0.250000X0.525000X-0.500000X0.525000X0.500000X-0.525000X0.500000X-0.525000X-0.500000X0*%
G04 #@! TD*
G04 #@! TA.AperFunction,ComponentPad*
%ADD23C,1.508000*%
G04 #@! TD*
G04 #@! TA.AperFunction,ViaPad*
%ADD24C,0.600000*%
G04 #@! TD*
G04 #@! TA.AperFunction,Conductor*
%ADD25C,0.200000*%
G04 #@! TD*
G04 APERTURE END LIST*
D10*
X172810000Y-127310000D03*
D11*
X170270000Y-127310000D03*
X167730000Y-127310000D03*
X165190000Y-127310000D03*
D12*
X172310000Y-119500000D03*
X164690000Y-119500000D03*
D13*
X125540000Y-118000000D03*
X123000000Y-118000000D03*
X130620000Y-147489400D03*
X128080000Y-118000000D03*
X123000000Y-147489400D03*
X128080000Y-147489400D03*
X125540000Y-147489400D03*
D14*
X120460000Y-118000000D03*
D13*
X120460000Y-147489400D03*
D15*
X154440000Y-125450000D03*
X151900000Y-125450000D03*
X149360000Y-125450000D03*
X146820000Y-125450000D03*
X144280000Y-125450000D03*
X141740000Y-125450000D03*
X152789000Y-139293000D03*
X152789000Y-136753000D03*
X152789000Y-149707000D03*
X152789000Y-147167000D03*
X155710000Y-127990000D03*
X155710000Y-130530000D03*
X155710000Y-133070000D03*
X155710000Y-135610000D03*
X155710000Y-138150000D03*
X155710000Y-140690000D03*
X155710000Y-143230000D03*
X155710000Y-145770000D03*
X155710000Y-148310000D03*
X155710000Y-150850000D03*
X155710000Y-153390000D03*
X155710000Y-155930000D03*
X140470000Y-155930000D03*
X140470000Y-153390000D03*
X140470000Y-150850000D03*
X140470000Y-148310000D03*
X140470000Y-145770000D03*
X140470000Y-143230000D03*
X140470000Y-140690000D03*
X140470000Y-138150000D03*
X140470000Y-135610000D03*
X140470000Y-133070000D03*
X140470000Y-130530000D03*
X140470000Y-127990000D03*
D12*
X146190000Y-117000000D03*
X153810000Y-117000000D03*
D16*
X134040000Y-107500000D03*
D17*
X131500000Y-107500000D03*
X128960000Y-107500000D03*
X126420000Y-107500000D03*
X123880000Y-107500000D03*
X121340000Y-107500000D03*
D16*
X176310000Y-108000000D03*
D17*
X173770000Y-108000000D03*
X171230000Y-108000000D03*
X168690000Y-108000000D03*
D16*
X157580000Y-107500000D03*
D17*
X155040000Y-107500000D03*
X152500000Y-107500000D03*
X149960000Y-107500000D03*
X147420000Y-107500000D03*
X144880000Y-107500000D03*
D18*
X181300000Y-150950000D03*
X181300000Y-150300000D03*
X181300000Y-149650000D03*
X181300000Y-149000000D03*
X181300000Y-148350000D03*
D19*
X184000000Y-153150000D03*
D20*
X184000000Y-152675000D03*
D21*
X181300000Y-152150000D03*
D22*
X184000000Y-150650000D03*
X184000000Y-148650000D03*
D21*
X181300000Y-147150000D03*
D20*
X184000000Y-146625000D03*
D19*
X184000000Y-146150000D03*
D23*
X183000000Y-132000000D03*
X183000000Y-129500000D03*
X183000000Y-127000000D03*
D24*
X159500000Y-107500000D03*
X154500000Y-119000000D03*
X149500000Y-133000000D03*
X140500000Y-121000000D03*
X148500000Y-134500000D03*
X139000000Y-122000000D03*
X157000000Y-122500000D03*
X166000000Y-114500000D03*
X165000000Y-112500000D03*
X155500000Y-121000000D03*
X145000000Y-122500000D03*
X144000000Y-153000000D03*
X168500000Y-131500000D03*
X163500000Y-135000000D03*
D25*
X181300000Y-148350000D02*
X181300000Y-149000000D01*
X144280000Y-125450000D02*
X152730000Y-117000000D01*
X164120000Y-127310000D02*
X165190000Y-127310000D01*
X153810000Y-108730000D02*
X155040000Y-107500000D01*
X168039000Y-108651000D02*
X168690000Y-108000000D01*
X165190000Y-127310000D02*
X165190000Y-132287430D01*
X152730000Y-117000000D02*
X153810000Y-117000000D01*
X144280000Y-125450000D02*
X141740000Y-125450000D01*
X165190000Y-132287430D02*
X181252570Y-148350000D01*
X181252570Y-148350000D02*
X181300000Y-148350000D01*
X123000000Y-118000000D02*
X130450000Y-125450000D01*
X121340000Y-107500000D02*
X123000000Y-109160000D01*
X153810000Y-117000000D02*
X153810000Y-108730000D01*
X155040000Y-107500000D02*
X156191000Y-108651000D01*
X156191000Y-108651000D02*
X168039000Y-108651000D01*
X130450000Y-125450000D02*
X141740000Y-125450000D01*
X123000000Y-109160000D02*
X123000000Y-118000000D01*
X153810000Y-117000000D02*
X164120000Y-127310000D01*
X120460000Y-118000000D02*
X129150800Y-126690800D01*
X157580000Y-107500000D02*
X158231000Y-106849000D01*
X175159000Y-106849000D02*
X176310000Y-108000000D01*
X120189000Y-107023240D02*
X120189000Y-117729000D01*
X176310000Y-115500000D02*
X172310000Y-119500000D01*
X145579200Y-126690800D02*
X146820000Y-125450000D01*
X122729000Y-106349000D02*
X120863240Y-106349000D01*
X158231000Y-106849000D02*
X175159000Y-106849000D01*
X146820000Y-125450000D02*
X153270000Y-119000000D01*
X178310000Y-127310000D02*
X183000000Y-132000000D01*
X172310000Y-119500000D02*
X172310000Y-126810000D01*
X120863240Y-106349000D02*
X120189000Y-107023240D01*
X159500000Y-107500000D02*
X157580000Y-107500000D01*
X176310000Y-108000000D02*
X176310000Y-115500000D01*
X172310000Y-126810000D02*
X172810000Y-127310000D01*
X120189000Y-117729000D02*
X120460000Y-118000000D01*
X153270000Y-119000000D02*
X154500000Y-119000000D01*
X129150800Y-126690800D02*
X145579200Y-126690800D01*
X172810000Y-127310000D02*
X178310000Y-127310000D01*
X123880000Y-107500000D02*
X122729000Y-106349000D01*
X128960000Y-107500000D02*
X140500000Y-119040000D01*
X149500000Y-133000000D02*
X149500000Y-133464000D01*
X149500000Y-133464000D02*
X152789000Y-136753000D01*
X140500000Y-119040000D02*
X140500000Y-121000000D01*
X126420000Y-107500000D02*
X139000000Y-120080000D01*
X148500000Y-134500000D02*
X148500000Y-135004000D01*
X148500000Y-135004000D02*
X152789000Y-139293000D01*
X139000000Y-120080000D02*
X139000000Y-122000000D01*
X166000000Y-114500000D02*
X167270000Y-114500000D01*
X151900000Y-125450000D02*
X154850000Y-122500000D01*
X154850000Y-122500000D02*
X157000000Y-122500000D01*
X167270000Y-114500000D02*
X173770000Y-108000000D01*
X153810000Y-121000000D02*
X155500000Y-121000000D01*
X165000000Y-112500000D02*
X166730000Y-112500000D01*
X166730000Y-112500000D02*
X171230000Y-108000000D01*
X149360000Y-125450000D02*
X153810000Y-121000000D01*
X182500000Y-150424999D02*
X181974999Y-150950000D01*
X183000000Y-129500000D02*
X184055000Y-130555000D01*
X184055000Y-132436996D02*
X182500000Y-133991996D01*
X184055000Y-130555000D02*
X184055000Y-132436996D01*
X182500000Y-133991996D02*
X182500000Y-150424999D01*
X181974999Y-150950000D02*
X181300000Y-150950000D01*
X149960000Y-107500000D02*
X146190000Y-111270000D01*
X143500000Y-153500000D02*
X142900000Y-153500000D01*
X142900000Y-153500000D02*
X140470000Y-155930000D01*
X144000000Y-153000000D02*
X143500000Y-153500000D01*
X146190000Y-111270000D02*
X146190000Y-117000000D01*
X146190000Y-117000000D02*
X146190000Y-121310000D01*
X146190000Y-121310000D02*
X145000000Y-122500000D01*
X118000000Y-153500000D02*
X118000000Y-108645140D01*
X120697140Y-105948000D02*
X145868000Y-105948000D01*
X118000000Y-153500000D02*
X118500000Y-153500000D01*
X118000000Y-108645140D02*
X120697140Y-105948000D01*
X118610000Y-153390000D02*
X140470000Y-153390000D01*
X118500000Y-153500000D02*
X118610000Y-153390000D01*
X145868000Y-105948000D02*
X147420000Y-107500000D01*
X148875243Y-145770000D02*
X155196043Y-139449200D01*
X170270000Y-127310000D02*
X170270000Y-126770000D01*
X168500000Y-131500000D02*
X170270000Y-129730000D01*
X159050800Y-139449200D02*
X163500000Y-135000000D01*
X170270000Y-126770000D02*
X164690000Y-121190000D01*
X140470000Y-145770000D02*
X148875243Y-145770000D01*
X155196043Y-139449200D02*
X159050800Y-139449200D01*
X170270000Y-129730000D02*
X170270000Y-127310000D01*
X164690000Y-121190000D02*
X164690000Y-119500000D01*
X132480600Y-148679400D02*
X124190000Y-148679400D01*
X124190000Y-148679400D02*
X123000000Y-147489400D01*
X140470000Y-140690000D02*
X132480600Y-148679400D01*
X140470000Y-138150000D02*
X134879400Y-138150000D01*
X134879400Y-138150000D02*
X125540000Y-147489400D01*
M02*
