G04 #@! TF.GenerationSoftware,KiCad,Pcbnew,9.0.7*
G04 #@! TF.CreationDate,2026-04-02T00:49:13+09:00*
G04 #@! TF.ProjectId,inzhunitor2,696e7a68-756e-4697-946f-72322e6b6963,rev?*
G04 #@! TF.SameCoordinates,Original*
G04 #@! TF.FileFunction,Copper,L2,Bot*
G04 #@! TF.FilePolarity,Positive*
%FSLAX46Y46*%
G04 Gerber Fmt 4.6, Leading zero omitted, Abs format (unit mm)*
G04 Created by KiCad (PCBNEW 9.0.7) date 2026-04-02 00:49:13*
%MOMM*%
%LPD*%
G01*
G04 APERTURE LIST*
G04 #@! TA.AperFunction,ComponentPad*
%ADD10R,1.290000X1.290000*%
G04 #@! TD*
G04 #@! TA.AperFunction,ComponentPad*
%ADD11C,1.290000*%
G04 #@! TD*
G04 #@! TA.AperFunction,ComponentPad*
%ADD12C,1.600000*%
G04 #@! TD*
G04 #@! TA.AperFunction,ComponentPad*
%ADD13C,1.778000*%
G04 #@! TD*
G04 #@! TA.AperFunction,ComponentPad*
%ADD14R,1.778000X1.778000*%
G04 #@! TD*
G04 #@! TA.AperFunction,ComponentPad*
%ADD15C,1.879600*%
G04 #@! TD*
G04 #@! TA.AperFunction,ComponentPad*
%ADD16R,1.700000X1.700000*%
G04 #@! TD*
G04 #@! TA.AperFunction,ComponentPad*
%ADD17C,1.700000*%
G04 #@! TD*
G04 #@! TA.AperFunction,HeatsinkPad*
%ADD18O,1.550000X0.890000*%
G04 #@! TD*
G04 #@! TA.AperFunction,HeatsinkPad*
%ADD19O,0.950000X1.250000*%
G04 #@! TD*
G04 #@! TA.AperFunction,ComponentPad*
%ADD20C,1.508000*%
G04 #@! TD*
G04 #@! TA.AperFunction,ViaPad*
%ADD21C,0.600000*%
G04 #@! TD*
G04 #@! TA.AperFunction,Conductor*
%ADD22C,0.200000*%
G04 #@! TD*
G04 APERTURE END LIST*
D10*
X172810000Y-127310000D03*
D11*
X170270000Y-127310000D03*
X167730000Y-127310000D03*
X165190000Y-127310000D03*
D12*
X172310000Y-119500000D03*
X164690000Y-119500000D03*
D13*
X125540000Y-118000000D03*
X123000000Y-118000000D03*
X130620000Y-147489400D03*
X128080000Y-118000000D03*
X123000000Y-147489400D03*
X128080000Y-147489400D03*
X125540000Y-147489400D03*
D14*
X120460000Y-118000000D03*
D13*
X120460000Y-147489400D03*
D15*
X154440000Y-125450000D03*
X151900000Y-125450000D03*
X149360000Y-125450000D03*
X146820000Y-125450000D03*
X144280000Y-125450000D03*
X141740000Y-125450000D03*
X152789000Y-139293000D03*
X152789000Y-136753000D03*
X152789000Y-149707000D03*
X152789000Y-147167000D03*
X155710000Y-127990000D03*
X155710000Y-130530000D03*
X155710000Y-133070000D03*
X155710000Y-135610000D03*
X155710000Y-138150000D03*
X155710000Y-140690000D03*
X155710000Y-143230000D03*
X155710000Y-145770000D03*
X155710000Y-148310000D03*
X155710000Y-150850000D03*
X155710000Y-153390000D03*
X155710000Y-155930000D03*
X140470000Y-155930000D03*
X140470000Y-153390000D03*
X140470000Y-150850000D03*
X140470000Y-148310000D03*
X140470000Y-145770000D03*
X140470000Y-143230000D03*
X140470000Y-140690000D03*
X140470000Y-138150000D03*
X140470000Y-135610000D03*
X140470000Y-133070000D03*
X140470000Y-130530000D03*
X140470000Y-127990000D03*
D12*
X146190000Y-117000000D03*
X153810000Y-117000000D03*
D16*
X134040000Y-107500000D03*
D17*
X131500000Y-107500000D03*
X128960000Y-107500000D03*
X126420000Y-107500000D03*
X123880000Y-107500000D03*
X121340000Y-107500000D03*
D16*
X176310000Y-108000000D03*
D17*
X173770000Y-108000000D03*
X171230000Y-108000000D03*
X168690000Y-108000000D03*
D16*
X157580000Y-107500000D03*
D17*
X155040000Y-107500000D03*
X152500000Y-107500000D03*
X149960000Y-107500000D03*
X147420000Y-107500000D03*
X144880000Y-107500000D03*
D18*
X184000000Y-153150000D03*
D19*
X181300000Y-152150000D03*
X181300000Y-147150000D03*
D18*
X184000000Y-146150000D03*
D20*
X183000000Y-132000000D03*
X183000000Y-129500000D03*
X183000000Y-127000000D03*
D21*
X159500000Y-107500000D03*
X154500000Y-119000000D03*
X149500000Y-133000000D03*
X140500000Y-121000000D03*
X148500000Y-134500000D03*
X139000000Y-122000000D03*
X157000000Y-122500000D03*
X166000000Y-114500000D03*
X165000000Y-112500000D03*
X155500000Y-121000000D03*
X145000000Y-122500000D03*
X144000000Y-153000000D03*
X168500000Y-131500000D03*
X163500000Y-135000000D03*
D22*
X159500000Y-114000000D02*
X159500000Y-108000000D01*
X154500000Y-119000000D02*
X159500000Y-114000000D01*
X159500000Y-108000000D02*
X159500000Y-107500000D01*
X140500000Y-121000000D02*
X143000000Y-123500000D01*
X143000000Y-123500000D02*
X143000000Y-126500000D01*
X143000000Y-126500000D02*
X149500000Y-133000000D01*
X148500000Y-134265243D02*
X148500000Y-134500000D01*
X139000000Y-122000000D02*
X139000000Y-124765243D01*
X139000000Y-124765243D02*
X148500000Y-134265243D01*
X157000000Y-122500000D02*
X158000000Y-122500000D01*
X158000000Y-122500000D02*
X166000000Y-114500000D01*
X155500000Y-121000000D02*
X156500000Y-121000000D01*
X156500000Y-121000000D02*
X165000000Y-112500000D01*
X145000000Y-122500000D02*
X145520800Y-123020800D01*
X150101000Y-146899000D02*
X144000000Y-153000000D01*
X150101000Y-132751057D02*
X150101000Y-146899000D01*
X145520800Y-128170857D02*
X150101000Y-132751057D01*
X145520800Y-123020800D02*
X145520800Y-128170857D01*
X163500000Y-135000000D02*
X165000000Y-135000000D01*
X165000000Y-135000000D02*
X168500000Y-131500000D01*
M02*
