G04 #@! TF.GenerationSoftware,KiCad,Pcbnew,9.0.7*
G04 #@! TF.CreationDate,2026-04-02T00:49:13+09:00*
G04 #@! TF.ProjectId,inzhunitor2,696e7a68-756e-4697-946f-72322e6b6963,rev?*
G04 #@! TF.SameCoordinates,Original*
G04 #@! TF.FileFunction,Soldermask,Top*
G04 #@! TF.FilePolarity,Negative*
%FSLAX46Y46*%
G04 Gerber Fmt 4.6, Leading zero omitted, Abs format (unit mm)*
G04 Created by KiCad (PCBNEW 9.0.7) date 2026-04-02 00:49:13*
%MOMM*%
%LPD*%
G01*
G04 APERTURE LIST*
G04 Aperture macros list*
%AMRoundRect*
0 Rectangle with rounded corners*
0 $1 Rounding radius*
0 $2 $3 $4 $5 $6 $7 $8 $9 X,Y pos of 4 corners*
0 Add a 4 corners polygon primitive as box body*
4,1,4,$2,$3,$4,$5,$6,$7,$8,$9,$2,$3,0*
0 Add four circle primitives for the rounded corners*
1,1,$1+$1,$2,$3*
1,1,$1+$1,$4,$5*
1,1,$1+$1,$6,$7*
1,1,$1+$1,$8,$9*
0 Add four rect primitives between the rounded corners*
20,1,$1+$1,$2,$3,$4,$5,0*
20,1,$1+$1,$4,$5,$6,$7,0*
20,1,$1+$1,$6,$7,$8,$9,0*
20,1,$1+$1,$8,$9,$2,$3,0*%
G04 Aperture macros list end*
%ADD10C,3.000000*%
%ADD11RoundRect,0.102000X0.645000X0.645000X-0.645000X0.645000X-0.645000X-0.645000X0.645000X-0.645000X0*%
%ADD12C,1.494000*%
%ADD13C,1.600000*%
%ADD14C,1.982000*%
%ADD15RoundRect,0.102000X-0.889000X0.889000X-0.889000X-0.889000X0.889000X-0.889000X0.889000X0.889000X0*%
%ADD16C,2.083600*%
%ADD17R,1.700000X1.700000*%
%ADD18C,1.700000*%
%ADD19RoundRect,0.100000X0.575000X-0.100000X0.575000X0.100000X-0.575000X0.100000X-0.575000X-0.100000X0*%
%ADD20O,1.550000X0.890000*%
%ADD21RoundRect,0.250000X0.525000X-0.475000X0.525000X0.475000X-0.525000X0.475000X-0.525000X-0.475000X0*%
%ADD22O,0.950000X1.250000*%
%ADD23RoundRect,0.250000X0.525000X-0.500000X0.525000X0.500000X-0.525000X0.500000X-0.525000X-0.500000X0*%
%ADD24C,1.712000*%
G04 APERTURE END LIST*
D10*
X169000000Y-151850000D03*
D11*
X172810000Y-127310000D03*
D12*
X170270000Y-127310000D03*
X167730000Y-127310000D03*
X165190000Y-127310000D03*
D13*
X172310000Y-119500000D03*
X164690000Y-119500000D03*
D14*
X125540000Y-118000000D03*
X123000000Y-118000000D03*
X130620000Y-147489400D03*
X128080000Y-118000000D03*
X123000000Y-147489400D03*
X128080000Y-147489400D03*
X125540000Y-147489400D03*
D15*
X120460000Y-118000000D03*
D14*
X120460000Y-147489400D03*
D16*
X154440000Y-125450000D03*
X151900000Y-125450000D03*
X149360000Y-125450000D03*
X146820000Y-125450000D03*
X144280000Y-125450000D03*
X141740000Y-125450000D03*
X152789000Y-139293000D03*
X152789000Y-136753000D03*
X152789000Y-149707000D03*
X152789000Y-147167000D03*
X155710000Y-127990000D03*
X155710000Y-130530000D03*
X155710000Y-133070000D03*
X155710000Y-135610000D03*
X155710000Y-138150000D03*
X155710000Y-140690000D03*
X155710000Y-143230000D03*
X155710000Y-145770000D03*
X155710000Y-148310000D03*
X155710000Y-150850000D03*
X155710000Y-153390000D03*
X155710000Y-155930000D03*
X140470000Y-155930000D03*
X140470000Y-153390000D03*
X140470000Y-150850000D03*
X140470000Y-148310000D03*
X140470000Y-145770000D03*
X140470000Y-143230000D03*
X140470000Y-140690000D03*
X140470000Y-138150000D03*
X140470000Y-135610000D03*
X140470000Y-133070000D03*
X140470000Y-130530000D03*
X140470000Y-127990000D03*
D13*
X146190000Y-117000000D03*
X153810000Y-117000000D03*
D10*
X116250000Y-108000000D03*
D17*
X134040000Y-107500000D03*
D18*
X131500000Y-107500000D03*
X128960000Y-107500000D03*
X126420000Y-107500000D03*
X123880000Y-107500000D03*
X121340000Y-107500000D03*
D17*
X176310000Y-108000000D03*
D18*
X173770000Y-108000000D03*
X171230000Y-108000000D03*
X168690000Y-108000000D03*
D10*
X185000000Y-157500000D03*
D17*
X157580000Y-107500000D03*
D18*
X155040000Y-107500000D03*
X152500000Y-107500000D03*
X149960000Y-107500000D03*
X147420000Y-107500000D03*
X144880000Y-107500000D03*
D10*
X117250000Y-158750000D03*
D19*
X181300000Y-150950000D03*
X181300000Y-150300000D03*
X181300000Y-149650000D03*
X181300000Y-149000000D03*
X181300000Y-148350000D03*
D20*
X184000000Y-153150000D03*
D21*
X184000000Y-152675000D03*
D22*
X181300000Y-152150000D03*
D23*
X184000000Y-150650000D03*
X184000000Y-148650000D03*
D22*
X181300000Y-147150000D03*
D21*
X184000000Y-146625000D03*
D20*
X184000000Y-146150000D03*
D24*
X183000000Y-132000000D03*
X183000000Y-129500000D03*
X183000000Y-127000000D03*
M02*
