<?xml version="1.0" standalone="no"?>
<!DOCTYPE svg PUBLIC "-//W3C//DTD SVG 20010904//EN"
 "http://www.w3.org/TR/2001/REC-SVG-20010904/DTD/svg10.dtd">
<svg version="1.0" xmlns="http://www.w3.org/2000/svg"
 width="1000.000000pt" height="1000.000000pt" viewBox="0 0 1000.000000 1000.000000"
 preserveAspectRatio="xMidYMid meet">

<g transform="translate(0.000000,1000.000000) scale(0.100000,-0.100000)"
fill="#000000" stroke="none">
<path d="M2583 6109 c-59 -11 -96 -33 -136 -80 -43 -49 -62 -120 -52 -187 9
-60 25 -90 71 -135 89 -86 252 -88 342 -4 68 63 89 198 45 283 -50 95 -159
145 -270 123z"/>
<path d="M7310 6109 c-117 -23 -201 -140 -187 -261 15 -124 111 -208 237 -207
168 0 279 138 240 299 -29 120 -158 195 -290 169z"/>
<path d="M4288 4209 c-72 -41 103 -299 249 -367 45 -21 73 -27 128 -27 69 0
71 1 203 78 l132 77 133 -77 c131 -77 133 -78 202 -78 95 1 166 34 249 117 81
81 149 194 144 240 -2 25 -9 35 -31 42 -39 14 -53 3 -119 -95 -31 -46 -76
-101 -100 -122 -37 -32 -116 -67 -153 -67 -19 0 -237 129 -261 155 -17 19 -33
25 -64 25 -31 0 -47 -6 -64 -25 -24 -26 -242 -155 -261 -155 -35 0 -111 33
-150 64 -24 20 -65 69 -91 109 -77 118 -99 134 -146 106z"/>
</g>
</svg>
