<?xml version="1.0" standalone="no"?>
<!DOCTYPE svg PUBLIC "-//W3C//DTD SVG 20010904//EN"
 "http://www.w3.org/TR/2001/REC-SVG-20010904/DTD/svg10.dtd">
<svg version="1.0" xmlns="http://www.w3.org/2000/svg"
 width="1000.000000pt" height="1000.000000pt" viewBox="0 0 1000.000000 1000.000000"
 preserveAspectRatio="xMidYMid meet">

<g transform="translate(0.000000,1000.000000) scale(0.100000,-0.100000)"
fill="#000000" stroke="none">
<path d="M3604 6861 c-72 -26 -99 -46 -134 -100 -72 -113 -170 -373 -211 -562
-52 -240 -51 -473 2 -854 34 -241 52 -317 120 -491 26 -67 50 -111 72 -132 69
-67 270 -177 343 -188 53 -8 123 18 228 83 39 23 71 41 73 40 1 -2 -2 -19 -7
-38 -5 -19 -19 -95 -30 -169 -11 -74 -29 -169 -40 -210 -69 -269 -72 -296 -37
-335 35 -41 82 -43 195 -7 63 21 153 39 258 52 89 11 176 25 193 31 48 17 61
53 71 202 5 73 25 213 44 312 41 209 154 771 160 800 5 18 13 20 96 20 83 0
91 -2 96 -20 6 -29 119 -591 160 -800 19 -99 39 -239 44 -312 10 -149 23 -185
71 -202 17 -6 104 -20 193 -31 105 -13 195 -31 258 -52 113 -36 160 -34 196 7
34 39 31 66 -38 335 -11 41 -29 136 -40 210 -11 74 -25 150 -30 169 -5 19 -8
36 -7 38 2 1 34 -17 73 -40 105 -65 175 -91 228 -83 73 11 274 121 343 188 22
21 46 65 72 132 68 174 86 250 120 491 79 562 46 853 -143 1286 -61 138 -95
182 -162 214 -31 15 -80 29 -108 32 -82 9 -267 -63 -470 -181 -205 -120 -334
-190 -466 -253 -58 -27 -113 -59 -123 -71 -17 -19 -21 -19 -51 -7 -18 8 -74
21 -124 30 -84 14 -100 14 -184 0 -50 -9 -106 -22 -124 -30 -30 -12 -34 -12
-51 7 -10 12 -65 44 -123 71 -132 63 -261 133 -466 253 -174 102 -376 184
-449 183 -22 0 -63 -8 -91 -18z"/>
</g>
</svg>
