<?xml version="1.0" standalone="no"?>
<!DOCTYPE svg PUBLIC "-//W3C//DTD SVG 20010904//EN"
 "http://www.w3.org/TR/2001/REC-SVG-20010904/DTD/svg10.dtd">
<svg version="1.0" xmlns="http://www.w3.org/2000/svg"
 width="1000.000000pt" height="1000.000000pt" viewBox="0 0 1000.000000 1000.000000"
 preserveAspectRatio="xMidYMid meet">

<g transform="translate(0.000000,1000.000000) scale(0.100000,-0.100000)"
fill="#000000" stroke="none">
<path d="M3285 7617 c-66 -22 -122 -55 -159 -93 -36 -37 -126 -201 -165 -303
-35 -87 -69 -269 -106 -566 -64 -502 -66 -538 -59 -790 l6 -230 -78 -60 c-123
-94 -279 -240 -332 -313 -110 -150 -206 -334 -255 -488 -60 -189 -71 -260 -71
-444 0 -235 28 -364 119 -545 53 -106 83 -150 160 -240 52 -60 113 -126 135
-146 92 -84 296 -207 395 -239 22 -7 66 -26 98 -42 109 -54 429 -146 809 -232
71 -16 397 -71 488 -82 30 -3 82 -13 115 -21 151 -36 1079 -36 1230 0 33 8 85
18 115 21 91 11 417 66 488 82 380 86 700 178 809 232 32 16 76 35 98 42 99
32 303 155 395 239 22 20 83 86 135 146 77 90 107 134 160 240 91 181 119 310
119 545 0 184 -11 255 -71 444 -49 154 -145 338 -255 488 -53 73 -209 219
-332 313 l-78 60 6 230 c7 252 5 288 -59 790 -37 297 -71 479 -106 566 -40
103 -130 267 -166 304 -20 21 -66 52 -102 69 -56 26 -78 31 -141 31 -98 0
-152 -26 -245 -120 -173 -174 -267 -426 -319 -855 -22 -179 -49 -700 -41 -799
l6 -83 -23 5 c-129 31 -370 64 -593 82 -104 8 -203 19 -220 23 -36 11 -385 10
-402 -1 -6 -4 -98 -14 -205 -22 -225 -18 -466 -51 -596 -82 l-23 -5 6 83 c8
99 -19 620 -41 799 -40 330 -95 522 -200 702 -59 99 -169 214 -239 248 -59 29
-151 36 -210 17z m221 -100 c85 -58 128 -107 187 -219 96 -178 140 -333 178
-622 26 -201 52 -692 44 -831 l-6 -111 25 -13 c22 -12 45 -10 173 12 208 37
345 54 597 72 272 21 329 21 596 0 250 -19 388 -35 593 -72 128 -22 151 -24
173 -12 l25 13 -6 111 c-8 139 18 630 44 831 24 182 63 365 98 454 41 105 129
261 175 311 59 63 152 121 204 127 55 6 146 -23 197 -62 44 -34 99 -124 159
-261 47 -105 88 -289 112 -500 9 -77 23 -187 31 -245 40 -293 47 -400 40 -651
l-7 -246 33 -24 c80 -56 239 -192 306 -261 131 -136 276 -390 336 -588 77
-254 86 -444 33 -685 -41 -190 -108 -311 -272 -496 -136 -153 -300 -270 -463
-329 -42 -15 -98 -38 -126 -52 -145 -73 -696 -216 -1050 -273 -442 -72 -766
-93 -1172 -76 -222 9 -412 30 -698 76 -354 57 -905 200 -1050 273 -27 14 -84
37 -126 52 -163 59 -327 176 -463 329 -164 185 -231 306 -272 496 -53 241 -44
431 33 685 60 198 205 452 336 588 67 69 226 205 306 261 l33 24 -7 246 c-7
251 0 358 40 651 8 58 22 168 31 245 35 302 85 475 191 660 47 81 87 117 163
145 86 32 142 24 226 -33z"/>
<path d="M3184 4885 c-12 -8 -32 -38 -44 -67 -19 -44 -23 -71 -23 -162 -1 -93
2 -111 17 -122 36 -26 43 -9 43 109 -1 97 2 118 21 155 12 23 26 42 31 42 28
0 66 -113 73 -220 3 -30 7 -35 28 -35 21 0 26 5 28 34 8 83 -32 215 -78 261
-24 24 -67 26 -96 5z"/>
<path d="M6720 4880 c-46 -46 -86 -178 -78 -261 2 -29 7 -34 28 -34 21 0 25 5
28 35 7 107 45 220 73 220 5 0 19 -19 31 -42 19 -37 22 -58 21 -155 0 -118 7
-135 43 -109 15 11 18 29 17 122 0 91 -4 118 -23 162 -12 29 -32 59 -44 67
-29 21 -72 19 -96 -5z"/>
<path d="M2720 4244 c-58 -23 -82 -40 -100 -69 -44 -72 -11 -137 78 -152 68
-12 250 -8 299 6 51 14 83 52 83 98 0 45 -33 77 -101 99 -54 17 -231 29 -259
18z m229 -73 c165 -49 9 -123 -197 -94 -82 12 -97 21 -87 52 20 65 145 83 284
42z"/>
<path d="M7095 4245 c-5 -2 -36 -11 -69 -20 -72 -20 -106 -52 -106 -98 0 -46
32 -84 83 -98 49 -14 231 -18 299 -6 89 15 122 80 78 152 -31 50 -80 69 -185
72 -49 1 -94 1 -100 -2z m192 -71 c37 -15 63 -58 46 -75 -19 -19 -153 -33
-235 -25 -128 12 -159 63 -57 94 105 32 179 34 246 6z"/>
<path d="M4566 4213 c-9 -21 18 -59 71 -98 38 -28 41 -34 55 -116 22 -122 58
-197 127 -263 61 -58 104 -76 181 -76 77 0 120 18 181 76 69 66 105 141 127
263 14 82 17 88 55 116 53 39 80 77 71 98 -10 27 -34 20 -72 -19 -76 -78 -183
-97 -263 -46 -24 16 -53 39 -63 50 -11 12 -27 22 -36 22 -9 0 -25 -10 -36 -22
-10 -11 -39 -34 -63 -50 -80 -51 -187 -32 -263 46 -38 39 -62 46 -72 19z m471
-99 c51 -39 97 -54 162 -54 l61 0 -6 -32 c-3 -18 -15 -64 -27 -103 -34 -112
-137 -205 -227 -205 -90 0 -193 93 -227 205 -12 39 -24 85 -27 103 l-5 32 62
0 c64 0 119 20 167 59 14 11 27 21 29 21 2 0 19 -11 38 -26z"/>
</g>
</svg>
